<?xml version="1.0" standalone="no"?>
<!DOCTYPE svg PUBLIC "-//W3C//DTD SVG 1.1//EN" "http://www.w3.org/Graphics/SVG/1.1/DTD/svg11.dtd">

<svg width="800" height="600" version="1.1" xmlns="http://www.w3.org/2000/svg">
	<ellipse stroke="black" stroke-width="1" fill="none" cx="35.5" cy="54.5" rx="30" ry="30"/>
	<text x="16.5" y="60.5" font-family="Times New Roman" font-size="20">Start</text>
	<ellipse stroke="black" stroke-width="1" fill="none" cx="117.5" cy="54.5" rx="30" ry="30"/>
	<text x="93.5" y="60.5" font-family="Times New Roman" font-size="20">Busca</text>
	<ellipse stroke="black" stroke-width="1" fill="none" cx="498.5" cy="32.5" rx="30" ry="30"/>
	<text x="467.5" y="38.5" font-family="Times New Roman" font-size="20">Decode</text>
	<ellipse stroke="black" stroke-width="1" fill="none" cx="487.5" cy="563.5" rx="30" ry="30"/>
	<text x="466.5" y="569.5" font-family="Times New Roman" font-size="20">OUT</text>
	<ellipse stroke="black" stroke-width="1" fill="none" cx="398.5" cy="563.5" rx="30" ry="30"/>
	<text x="387.5" y="569.5" font-family="Times New Roman" font-size="20">IN</text>
	<ellipse stroke="black" stroke-width="1" fill="none" cx="308.5" cy="563.5" rx="30" ry="30"/>
	<text x="289.5" y="569.5" font-family="Times New Roman" font-size="20">SUB</text>
	<ellipse stroke="black" stroke-width="1" fill="none" cx="218.5" cy="563.5" rx="30" ry="30"/>
	<text x="196.5" y="569.5" font-family="Times New Roman" font-size="20">ADD</text>
	<ellipse stroke="black" stroke-width="1" fill="none" cx="130.5" cy="563.5" rx="30" ry="30"/>
	<text x="111.5" y="569.5" font-family="Times New Roman" font-size="20">MVI</text>
	<ellipse stroke="black" stroke-width="1" fill="none" cx="35.5" cy="563.5" rx="30" ry="30"/>
	<text x="12.5" y="569.5" font-family="Times New Roman" font-size="20">MOV</text>
	<ellipse stroke="black" stroke-width="1" fill="none" cx="580.5" cy="563.5" rx="30" ry="30"/>
	<text x="562.5" y="569.5" font-family="Times New Roman" font-size="20">JMP</text>
	<ellipse stroke="black" stroke-width="1" fill="none" cx="669.5" cy="563.5" rx="30" ry="30"/>
	<text x="659.5" y="569.5" font-family="Times New Roman" font-size="20">JZ</text>
	<ellipse stroke="black" stroke-width="1" fill="none" cx="752.5" cy="563.5" rx="30" ry="30"/>
	<text x="733.5" y="569.5" font-family="Times New Roman" font-size="20">SHL</text>
	<ellipse stroke="black" stroke-width="1" fill="none" cx="765.5" cy="469.5" rx="30" ry="30"/>
	<text x="746.5" y="475.5" font-family="Times New Roman" font-size="20">SHR</text>
	<ellipse stroke="black" stroke-width="1" fill="none" cx="775.5" cy="365.5" rx="30" ry="30"/>
	<text x="753.5" y="371.5" font-family="Times New Roman" font-size="20">AND</text>
	<ellipse stroke="black" stroke-width="1" fill="none" cx="775.5" cy="280.5" rx="30" ry="30"/>
	<text x="754.5" y="286.5" font-family="Times New Roman" font-size="20">XOR</text>
	<ellipse stroke="black" stroke-width="1" fill="none" cx="775.5" cy="198.5" rx="30" ry="30"/>
	<text x="754.5" y="204.5" font-family="Times New Roman" font-size="20">NOR</text>
	<ellipse stroke="black" stroke-width="1" fill="none" cx="765.5" cy="110.5" rx="30" ry="30"/>
	<text x="744.5" y="116.5" font-family="Times New Roman" font-size="20">NOT</text>
	<polygon stroke="black" stroke-width="1" points="65.5,54.5 87.5,54.5"/>
	<polygon fill="black" stroke-width="1" points="87.5,54.5 79.5,49.5 79.5,59.5"/>
	<polygon stroke="black" stroke-width="1" points="147.45,52.771 468.55,34.229"/>
	<polygon fill="black" stroke-width="1" points="468.55,34.229 460.275,29.699 460.851,39.682"/>
	<polygon stroke="black" stroke-width="1" points="497.879,62.494 488.121,533.506"/>
	<polygon fill="black" stroke-width="1" points="488.121,533.506 493.286,525.612 483.288,525.405"/>
	<text x="448.5" y="303.5" font-family="Times New Roman" font-size="20">1101</text>
	<polygon stroke="black" stroke-width="1" points="492.948,61.982 404.052,534.018"/>
	<polygon fill="black" stroke-width="1" points="404.052,534.018 410.446,527.082 400.619,525.231"/>
	<text x="401.5" y="301.5" font-family="Times New Roman" font-size="20">1100</text>
	<polygon stroke="black" stroke-width="1" points="488.393,60.746 318.607,535.254"/>
	<polygon fill="black" stroke-width="1" points="318.607,535.254 326.01,529.406 316.594,526.037"/>
	<text x="355.5" y="296.5" font-family="Times New Roman" font-size="20">0101</text>
	<polygon stroke="black" stroke-width="1" points="484.507,59.037 232.493,536.963"/>
	<polygon fill="black" stroke-width="1" points="232.493,536.963 240.647,532.219 231.802,527.555"/>
	<text x="311.5" y="292.5" font-family="Times New Roman" font-size="20">0100</text>
	<polygon stroke="black" stroke-width="1" points="481.412,57.157 147.588,538.843"/>
	<polygon fill="black" stroke-width="1" points="147.588,538.843 156.255,535.115 148.036,529.419"/>
	<text x="269.5" y="290.5" font-family="Times New Roman" font-size="20">0011</text>
	<polygon stroke="black" stroke-width="1" points="478.784,55.112 55.216,540.888"/>
	<polygon fill="black" stroke-width="1" points="55.216,540.888 64.242,538.145 56.705,531.573"/>
	<text x="221.5" y="289.5" font-family="Times New Roman" font-size="20">0010</text>
	<polygon stroke="black" stroke-width="1" points="469.861,539.234 135.139,78.766"/>
	<polygon fill="black" stroke-width="1" points="135.139,78.766 135.799,88.177 143.888,82.297"/>
	<polygon stroke="black" stroke-width="1" points="384.001,537.236 131.999,80.764"/>
	<polygon fill="black" stroke-width="1" points="131.999,80.764 131.488,90.184 140.243,85.351"/>
	<polygon stroke="black" stroke-width="1" points="297.96,535.412 128.04,82.588"/>
	<polygon fill="black" stroke-width="1" points="128.04,82.588 126.169,91.834 135.532,88.321"/>
	<polygon stroke="black" stroke-width="1" points="212.661,534.074 123.339,83.926"/>
	<polygon fill="black" stroke-width="1" points="123.339,83.926 119.992,92.746 129.8,90.8"/>
	<polygon stroke="black" stroke-width="1" points="129.734,533.51 118.266,84.49"/>
	<polygon fill="black" stroke-width="1" points="118.266,84.49 113.472,92.615 123.469,92.36"/>
	<polygon stroke="black" stroke-width="1" points="40.271,533.882 112.729,84.118"/>
	<polygon fill="black" stroke-width="1" points="112.729,84.118 106.52,91.221 116.392,92.812"/>
	<polygon stroke="black" stroke-width="1" points="503.078,62.149 575.922,533.851"/>
	<polygon fill="black" stroke-width="1" points="575.922,533.851 579.642,525.182 569.759,526.708"/>
	<text x="493.5" y="305.5" font-family="Times New Roman" font-size="20">1110</text>
	<polygon stroke="black" stroke-width="1" points="507.696,61.056 660.304,534.944"/>
	<polygon fill="black" stroke-width="1" points="660.304,534.944 662.611,525.797 653.093,528.862"/>
	<text x="538.5" y="310.5" font-family="Times New Roman" font-size="20">1111</text>
	<polygon stroke="black" stroke-width="1" points="511.445,59.563 739.555,536.437"/>
	<polygon fill="black" stroke-width="1" points="739.555,536.437 740.613,527.062 731.592,531.378"/>
	<text x="578.5" y="314.5" font-family="Times New Roman" font-size="20">0100</text>
	<polygon stroke="black" stroke-width="1" points="514.141,58.1 749.859,443.9"/>
	<polygon fill="black" stroke-width="1" points="749.859,443.9 749.955,434.467 741.421,439.68"/>
	<text x="587.5" y="269.5" font-family="Times New Roman" font-size="20">0111</text>
	<polygon stroke="black" stroke-width="1" points="517.685,55.564 756.315,342.436"/>
	<polygon fill="black" stroke-width="1" points="756.315,342.436 755.043,333.089 747.355,339.484"/>
	<text x="591.5" y="219.5" font-family="Times New Roman" font-size="20">1000</text>
	<polygon stroke="black" stroke-width="1" points="520.851,52.511 753.149,260.489"/>
	<polygon fill="black" stroke-width="1" points="753.149,260.489 750.524,251.428 743.854,258.878"/>
	<text x="591.5" y="177.5" font-family="Times New Roman" font-size="20">1001</text>
	<polygon stroke="black" stroke-width="1" points="524.233,47.921 749.767,183.079"/>
	<polygon fill="black" stroke-width="1" points="749.767,183.079 745.475,174.678 740.335,183.255"/>
	<text x="592.5" y="136.5" font-family="Times New Roman" font-size="20">1010</text>
	<polygon stroke="black" stroke-width="1" points="527.296,40.912 736.704,102.088"/>
	<polygon fill="black" stroke-width="1" points="736.704,102.088 730.427,95.045 727.623,104.644"/>
	<text x="592.5" y="93.5" font-family="Times New Roman" font-size="20">1011</text>
	<polygon stroke="black" stroke-width="1" points="560.313,541.308 137.687,76.692"/>
	<polygon fill="black" stroke-width="1" points="137.687,76.692 139.371,85.975 146.769,79.246"/>
	<polygon stroke="black" stroke-width="1" points="647.445,543.163 139.555,74.837"/>
	<polygon fill="black" stroke-width="1" points="139.555,74.837 142.047,83.936 148.826,76.584"/>
	<polygon stroke="black" stroke-width="1" points="729.092,544.737 140.908,73.263"/>
	<polygon fill="black" stroke-width="1" points="140.908,73.263 144.023,82.168 150.277,74.366"/>
	<polygon stroke="black" stroke-width="1" points="740.237,453.321 142.763,70.679"/>
	<polygon fill="black" stroke-width="1" points="142.763,70.679 146.803,79.204 152.197,70.783"/>
	<polygon stroke="black" stroke-width="1" points="748.377,352.68 144.623,67.32"/>
	<polygon fill="black" stroke-width="1" points="144.623,67.32 149.719,75.259 153.992,66.218"/>
	<polygon stroke="black" stroke-width="1" points="747.127,270.755 145.873,64.245"/>
	<polygon fill="black" stroke-width="1" points="145.873,64.245 151.815,71.573 155.063,62.115"/>
	<polygon stroke="black" stroke-width="1" points="746.194,192.086 146.806,60.914"/>
	<polygon fill="black" stroke-width="1" points="146.806,60.914 153.553,67.508 155.69,57.739"/>
	<polygon stroke="black" stroke-width="1" points="735.611,107.917 147.389,57.083"/>
	<polygon fill="black" stroke-width="1" points="147.389,57.083 154.928,62.753 155.789,52.79"/>
</svg>
